<svg width="727" height="176" viewBox="0 0 727 176" fill="none" xmlns="http://www.w3.org/2000/svg">
<rect x="48" y="29" width="632" height="132" fill="#F3F4F6"/>
<path d="M75.7174 67.192C76.4214 67.192 76.9974 67.1387 77.4454 67.032C77.9147 66.904 78.288 66.744 78.5654 66.552C78.8427 66.3387 79.0347 66.0933 79.1414 65.816C79.248 65.5387 79.3014 65.2293 79.3014 64.888C79.3014 64.1627 78.96 63.5653 78.2774 63.096C77.5947 62.6053 76.4214 62.0827 74.7574 61.528C74.032 61.272 73.3067 60.984 72.5814 60.664C71.856 60.3227 71.2054 59.9067 70.6294 59.416C70.0534 58.904 69.584 58.296 69.2214 57.592C68.8587 56.8667 68.6774 55.992 68.6774 54.968C68.6774 53.944 68.8694 53.0267 69.2534 52.216C69.6374 51.384 70.1814 50.68 70.8854 50.104C71.5894 49.528 72.4427 49.0907 73.4454 48.792C74.448 48.472 75.5787 48.312 76.8374 48.312C78.3307 48.312 79.6214 48.472 80.7094 48.792C81.7974 49.112 82.6934 49.464 83.3974 49.848L81.9574 53.784C81.3387 53.464 80.6454 53.1867 79.8774 52.952C79.1307 52.696 78.224 52.568 77.1574 52.568C75.9627 52.568 75.0987 52.7387 74.5654 53.08C74.0534 53.4 73.7974 53.9013 73.7974 54.584C73.7974 54.9893 73.8934 55.3307 74.0854 55.608C74.2774 55.8853 74.544 56.1413 74.8854 56.376C75.248 56.5893 75.6534 56.792 76.1014 56.984C76.5707 57.1547 77.0827 57.336 77.6374 57.528C78.7894 57.9547 79.792 58.3813 80.6454 58.808C81.4987 59.2133 82.2027 59.6933 82.7574 60.248C83.3334 60.8027 83.76 61.4533 84.0374 62.2C84.3147 62.9467 84.4534 63.8533 84.4534 64.92C84.4534 66.9893 83.728 68.6 82.2774 69.752C80.8267 70.8827 78.64 71.448 75.7174 71.448C74.736 71.448 73.8507 71.384 73.0614 71.256C72.272 71.1493 71.568 71.0107 70.9494 70.84C70.352 70.6693 69.8294 70.488 69.3814 70.296C68.9547 70.104 68.592 69.9227 68.2934 69.752L69.7014 65.784C70.3627 66.1467 71.1734 66.4773 72.1334 66.776C73.1147 67.0533 74.3094 67.192 75.7174 67.192ZM97.2224 62.072C97.2224 60.536 97.0197 59.448 96.6144 58.808C96.2304 58.168 95.5584 57.848 94.5984 57.848C94.2997 57.848 93.9904 57.8693 93.6704 57.912C93.3504 57.9333 93.041 57.9653 92.7424 58.008V71H87.9744V54.744C88.3797 54.6373 88.849 54.5307 89.3824 54.424C89.937 54.296 90.513 54.1893 91.1104 54.104C91.729 53.9973 92.3584 53.9227 92.9984 53.88C93.6384 53.816 94.2677 53.784 94.8864 53.784C96.1024 53.784 97.0837 53.944 97.8304 54.264C98.5984 54.5627 99.2277 54.9253 99.7184 55.352C100.401 54.8613 101.18 54.4773 102.054 54.2C102.95 53.9227 103.772 53.784 104.518 53.784C105.862 53.784 106.961 53.976 107.814 54.36C108.689 54.7227 109.382 55.2453 109.894 55.928C110.406 56.6107 110.758 57.4213 110.95 58.36C111.142 59.2987 111.238 60.344 111.238 61.496V71H106.47V62.072C106.47 60.536 106.268 59.448 105.862 58.808C105.478 58.168 104.806 57.848 103.846 57.848C103.59 57.848 103.228 57.912 102.758 58.04C102.31 58.168 101.937 58.328 101.638 58.52C101.788 59.0107 101.884 59.5333 101.926 60.088C101.969 60.6213 101.99 61.1973 101.99 61.816V71H97.2224V62.072ZM120.336 71H115.568V54.168H120.336V71ZM120.784 49.304C120.784 50.1787 120.496 50.872 119.92 51.384C119.365 51.8747 118.704 52.12 117.936 52.12C117.168 52.12 116.496 51.8747 115.92 51.384C115.365 50.872 115.088 50.1787 115.088 49.304C115.088 48.4293 115.365 47.7467 115.92 47.256C116.496 46.744 117.168 46.488 117.936 46.488C118.704 46.488 119.365 46.744 119.92 47.256C120.496 47.7467 120.784 48.4293 120.784 49.304ZM124.658 49.976L129.426 49.208V54.168H135.154V58.136H129.426V64.056C129.426 65.0587 129.597 65.8587 129.938 66.456C130.301 67.0533 131.015 67.352 132.082 67.352C132.594 67.352 133.117 67.3093 133.65 67.224C134.205 67.1173 134.706 66.9787 135.154 66.808L135.826 70.52C135.25 70.7547 134.61 70.9573 133.906 71.128C133.202 71.2987 132.338 71.384 131.314 71.384C130.013 71.384 128.935 71.2133 128.082 70.872C127.229 70.5093 126.546 70.0187 126.034 69.4C125.522 68.76 125.159 67.992 124.946 67.096C124.754 66.2 124.658 65.208 124.658 64.12V49.976ZM139.037 71V46.936L143.805 46.168V54.232C144.125 54.1253 144.53 54.0293 145.021 53.944C145.533 53.8373 146.024 53.784 146.493 53.784C147.858 53.784 148.989 53.976 149.885 54.36C150.802 54.7227 151.528 55.2453 152.061 55.928C152.616 56.6107 153 57.4213 153.213 58.36C153.448 59.2987 153.565 60.344 153.565 61.496V71H148.797V62.072C148.797 60.536 148.594 59.448 148.189 58.808C147.805 58.168 147.08 57.848 146.013 57.848C145.586 57.848 145.181 57.8907 144.797 57.976C144.434 58.04 144.104 58.1147 143.805 58.2V71H139.037ZM157.081 62.712C157.081 61.2187 157.305 59.9173 157.753 58.808C158.222 57.6773 158.83 56.7387 159.577 55.992C160.323 55.2453 161.177 54.68 162.137 54.296C163.118 53.912 164.121 53.72 165.145 53.72C167.534 53.72 169.422 54.456 170.809 55.928C172.195 57.3787 172.889 59.5227 172.889 62.36C172.889 62.6373 172.878 62.9467 172.857 63.288C172.835 63.608 172.814 63.896 172.793 64.152H161.977C162.083 65.1333 162.542 65.912 163.353 66.488C164.163 67.064 165.251 67.352 166.617 67.352C167.491 67.352 168.345 67.2773 169.177 67.128C170.03 66.9573 170.723 66.7547 171.257 66.52L171.897 70.392C171.641 70.52 171.299 70.648 170.873 70.776C170.446 70.904 169.966 71.0107 169.433 71.096C168.921 71.2027 168.366 71.288 167.769 71.352C167.171 71.416 166.574 71.448 165.977 71.448C164.462 71.448 163.139 71.224 162.009 70.776C160.899 70.328 159.971 69.72 159.225 68.952C158.499 68.1627 157.955 67.2347 157.593 66.168C157.251 65.1013 157.081 63.9493 157.081 62.712ZM168.281 60.888C168.259 60.4827 168.185 60.088 168.057 59.704C167.95 59.32 167.769 58.9787 167.513 58.68C167.278 58.3813 166.969 58.136 166.585 57.944C166.222 57.752 165.763 57.656 165.209 57.656C164.675 57.656 164.217 57.752 163.833 57.944C163.449 58.1147 163.129 58.3493 162.873 58.648C162.617 58.9467 162.414 59.2987 162.265 59.704C162.137 60.088 162.041 60.4827 161.977 60.888H168.281ZM186.712 58.392C186.285 58.2853 185.784 58.1787 185.208 58.072C184.632 57.944 184.013 57.88 183.352 57.88C183.053 57.88 182.691 57.912 182.264 57.976C181.859 58.0187 181.549 58.072 181.336 58.136V71H176.568V55.064C177.421 54.7653 178.424 54.488 179.576 54.232C180.749 53.9547 182.051 53.816 183.48 53.816C183.736 53.816 184.045 53.8373 184.408 53.88C184.771 53.9013 185.133 53.944 185.496 54.008C185.859 54.0507 186.221 54.1147 186.584 54.2C186.947 54.264 187.256 54.3493 187.512 54.456L186.712 58.392ZM188.956 62.712C188.956 61.2187 189.18 59.9173 189.628 58.808C190.097 57.6773 190.705 56.7387 191.452 55.992C192.198 55.2453 193.052 54.68 194.012 54.296C194.993 53.912 195.996 53.72 197.02 53.72C199.409 53.72 201.297 54.456 202.684 55.928C204.07 57.3787 204.764 59.5227 204.764 62.36C204.764 62.6373 204.753 62.9467 204.732 63.288C204.71 63.608 204.689 63.896 204.668 64.152H193.852C193.958 65.1333 194.417 65.912 195.228 66.488C196.038 67.064 197.126 67.352 198.492 67.352C199.366 67.352 200.22 67.2773 201.052 67.128C201.905 66.9573 202.598 66.7547 203.132 66.52L203.772 70.392C203.516 70.52 203.174 70.648 202.748 70.776C202.321 70.904 201.841 71.0107 201.308 71.096C200.796 71.2027 200.241 71.288 199.644 71.352C199.046 71.416 198.449 71.448 197.852 71.448C196.337 71.448 195.014 71.224 193.884 70.776C192.774 70.328 191.846 69.72 191.1 68.952C190.374 68.1627 189.83 67.2347 189.468 66.168C189.126 65.1013 188.956 63.9493 188.956 62.712ZM200.156 60.888C200.134 60.4827 200.06 60.088 199.932 59.704C199.825 59.32 199.644 58.9787 199.388 58.68C199.153 58.3813 198.844 58.136 198.46 57.944C198.097 57.752 197.638 57.656 197.084 57.656C196.55 57.656 196.092 57.752 195.708 57.944C195.324 58.1147 195.004 58.3493 194.748 58.648C194.492 58.9467 194.289 59.2987 194.14 59.704C194.012 60.088 193.916 60.4827 193.852 60.888H200.156ZM207.643 62.712C207.643 61.2187 207.867 59.9173 208.315 58.808C208.784 57.6773 209.392 56.7387 210.139 55.992C210.886 55.2453 211.739 54.68 212.699 54.296C213.68 53.912 214.683 53.72 215.707 53.72C218.096 53.72 219.984 54.456 221.371 55.928C222.758 57.3787 223.451 59.5227 223.451 62.36C223.451 62.6373 223.44 62.9467 223.419 63.288C223.398 63.608 223.376 63.896 223.355 64.152H212.539C212.646 65.1333 213.104 65.912 213.915 66.488C214.726 67.064 215.814 67.352 217.179 67.352C218.054 67.352 218.907 67.2773 219.739 67.128C220.592 66.9573 221.286 66.7547 221.819 66.52L222.459 70.392C222.203 70.52 221.862 70.648 221.435 70.776C221.008 70.904 220.528 71.0107 219.995 71.096C219.483 71.2027 218.928 71.288 218.331 71.352C217.734 71.416 217.136 71.448 216.539 71.448C215.024 71.448 213.702 71.224 212.571 70.776C211.462 70.328 210.534 69.72 209.787 68.952C209.062 68.1627 208.518 67.2347 208.155 66.168C207.814 65.1013 207.643 63.9493 207.643 62.712ZM218.843 60.888C218.822 60.4827 218.747 60.088 218.619 59.704C218.512 59.32 218.331 58.9787 218.075 58.68C217.84 58.3813 217.531 58.136 217.147 57.944C216.784 57.752 216.326 57.656 215.771 57.656C215.238 57.656 214.779 57.752 214.395 57.944C214.011 58.1147 213.691 58.3493 213.435 58.648C213.179 58.9467 212.976 59.2987 212.827 59.704C212.699 60.088 212.603 60.4827 212.539 60.888H218.843ZM227.131 54.744C227.941 54.5093 228.987 54.296 230.267 54.104C231.547 53.8907 232.891 53.784 234.299 53.784C235.728 53.784 236.912 53.976 237.851 54.36C238.811 54.7227 239.568 55.2453 240.123 55.928C240.677 56.6107 241.072 57.4213 241.307 58.36C241.541 59.2987 241.659 60.344 241.659 61.496V71H236.891V62.072C236.891 60.536 236.688 59.448 236.283 58.808C235.877 58.168 235.12 57.848 234.011 57.848C233.669 57.848 233.307 57.8693 232.923 57.912C232.539 57.9333 232.197 57.9653 231.899 58.008V71H227.131V54.744ZM250.806 67.576C251.681 67.576 252.3 67.4907 252.662 67.32C253.025 67.1493 253.206 66.8187 253.206 66.328C253.206 65.944 252.972 65.6133 252.502 65.336C252.033 65.0373 251.318 64.7067 250.358 64.344C249.612 64.0667 248.929 63.7787 248.31 63.48C247.713 63.1813 247.201 62.8293 246.774 62.424C246.348 61.9973 246.017 61.496 245.782 60.92C245.548 60.344 245.43 59.6507 245.43 58.84C245.43 57.2613 246.017 56.0133 247.19 55.096C248.364 54.1787 249.974 53.72 252.022 53.72C253.046 53.72 254.028 53.816 254.966 54.008C255.905 54.1787 256.652 54.3707 257.206 54.584L256.374 58.296C255.82 58.104 255.212 57.9333 254.55 57.784C253.91 57.6347 253.185 57.56 252.374 57.56C250.881 57.56 250.134 57.976 250.134 58.808C250.134 59 250.166 59.1707 250.23 59.32C250.294 59.4693 250.422 59.6187 250.614 59.768C250.806 59.896 251.062 60.0453 251.382 60.216C251.724 60.3653 252.15 60.536 252.662 60.728C253.708 61.112 254.572 61.496 255.254 61.88C255.937 62.2427 256.47 62.648 256.854 63.096C257.26 63.5227 257.537 64.0027 257.686 64.536C257.857 65.0693 257.942 65.688 257.942 66.392C257.942 68.056 257.313 69.3147 256.054 70.168C254.817 71.0213 253.057 71.448 250.774 71.448C249.281 71.448 248.033 71.32 247.03 71.064C246.049 70.808 245.366 70.5947 244.982 70.424L245.782 66.552C246.593 66.872 247.425 67.128 248.278 67.32C249.132 67.4907 249.974 67.576 250.806 67.576ZM273.961 71H269.193V54.168H273.961V71ZM274.409 49.304C274.409 50.1787 274.121 50.872 273.545 51.384C272.99 51.8747 272.329 52.12 271.561 52.12C270.793 52.12 270.121 51.8747 269.545 51.384C268.99 50.872 268.713 50.1787 268.713 49.304C268.713 48.4293 268.99 47.7467 269.545 47.256C270.121 46.744 270.793 46.488 271.561 46.488C272.329 46.488 272.99 46.744 273.545 47.256C274.121 47.7467 274.409 48.4293 274.409 49.304ZM283.275 67.576C284.15 67.576 284.768 67.4907 285.131 67.32C285.494 67.1493 285.675 66.8187 285.675 66.328C285.675 65.944 285.44 65.6133 284.971 65.336C284.502 65.0373 283.787 64.7067 282.827 64.344C282.08 64.0667 281.398 63.7787 280.779 63.48C280.182 63.1813 279.67 62.8293 279.243 62.424C278.816 61.9973 278.486 61.496 278.251 60.92C278.016 60.344 277.899 59.6507 277.899 58.84C277.899 57.2613 278.486 56.0133 279.659 55.096C280.832 54.1787 282.443 53.72 284.491 53.72C285.515 53.72 286.496 53.816 287.435 54.008C288.374 54.1787 289.12 54.3707 289.675 54.584L288.843 58.296C288.288 58.104 287.68 57.9333 287.019 57.784C286.379 57.6347 285.654 57.56 284.843 57.56C283.35 57.56 282.603 57.976 282.603 58.808C282.603 59 282.635 59.1707 282.699 59.32C282.763 59.4693 282.891 59.6187 283.083 59.768C283.275 59.896 283.531 60.0453 283.851 60.216C284.192 60.3653 284.619 60.536 285.131 60.728C286.176 61.112 287.04 61.496 287.723 61.88C288.406 62.2427 288.939 62.648 289.323 63.096C289.728 63.5227 290.006 64.0027 290.155 64.536C290.326 65.0693 290.411 65.688 290.411 66.392C290.411 68.056 289.782 69.3147 288.523 70.168C287.286 71.0213 285.526 71.448 283.243 71.448C281.75 71.448 280.502 71.32 279.499 71.064C278.518 70.808 277.835 70.5947 277.451 70.424L278.251 66.552C279.062 66.872 279.894 67.128 280.747 67.32C281.6 67.4907 282.443 67.576 283.275 67.576ZM308.094 67.672C308.563 67.672 309.011 67.6613 309.438 67.64C309.865 67.6187 310.206 67.5867 310.462 67.544V63.928C310.27 63.8853 309.982 63.8427 309.598 63.8C309.214 63.7573 308.862 63.736 308.542 63.736C308.094 63.736 307.667 63.768 307.262 63.832C306.878 63.8747 306.537 63.9707 306.238 64.12C305.939 64.2693 305.705 64.472 305.534 64.728C305.363 64.984 305.278 65.304 305.278 65.688C305.278 66.4347 305.523 66.9573 306.014 67.256C306.526 67.5333 307.219 67.672 308.094 67.672ZM307.71 53.72C309.118 53.72 310.291 53.88 311.23 54.2C312.169 54.52 312.915 54.9787 313.47 55.576C314.046 56.1733 314.451 56.8987 314.686 57.752C314.921 58.6053 315.038 59.5547 315.038 60.6V70.52C314.355 70.6693 313.406 70.84 312.19 71.032C310.974 71.2453 309.502 71.352 307.774 71.352C306.686 71.352 305.694 71.256 304.798 71.064C303.923 70.872 303.166 70.5627 302.526 70.136C301.886 69.688 301.395 69.112 301.054 68.408C300.713 67.704 300.542 66.84 300.542 65.816C300.542 64.8347 300.734 64.0027 301.118 63.32C301.523 62.6373 302.057 62.0933 302.718 61.688C303.379 61.2827 304.137 60.9947 304.99 60.824C305.843 60.632 306.729 60.536 307.646 60.536C308.265 60.536 308.809 60.568 309.278 60.632C309.769 60.6747 310.163 60.7387 310.462 60.824V60.376C310.462 59.5653 310.217 58.9147 309.726 58.424C309.235 57.9333 308.382 57.688 307.166 57.688C306.355 57.688 305.555 57.752 304.766 57.88C303.977 57.9867 303.294 58.1467 302.718 58.36L302.11 54.52C302.387 54.4347 302.729 54.3493 303.134 54.264C303.561 54.1573 304.019 54.072 304.51 54.008C305.001 53.9227 305.513 53.8587 306.046 53.816C306.601 53.752 307.155 53.72 307.71 53.72ZM331.101 62.456C331.101 63.928 331.432 65.112 332.093 66.008C332.754 66.904 333.736 67.352 335.037 67.352C335.464 67.352 335.858 67.3413 336.221 67.32C336.584 67.2773 336.882 67.2347 337.117 67.192V58.52C336.818 58.328 336.424 58.168 335.933 58.04C335.464 57.912 334.984 57.848 334.493 57.848C332.232 57.848 331.101 59.384 331.101 62.456ZM341.885 70.456C341.458 70.584 340.968 70.712 340.413 70.84C339.858 70.9467 339.272 71.0427 338.653 71.128C338.056 71.2133 337.437 71.2773 336.797 71.32C336.178 71.384 335.581 71.416 335.005 71.416C333.618 71.416 332.381 71.2133 331.293 70.808C330.205 70.4027 329.288 69.8267 328.541 69.08C327.794 68.312 327.218 67.3947 326.813 66.328C326.429 65.24 326.237 64.024 326.237 62.68C326.237 61.3147 326.408 60.088 326.749 59C327.09 57.8907 327.581 56.952 328.221 56.184C328.861 55.416 329.64 54.8293 330.557 54.424C331.496 54.0187 332.562 53.816 333.757 53.816C334.418 53.816 335.005 53.88 335.517 54.008C336.05 54.136 336.584 54.3173 337.117 54.552V46.936L341.885 46.168V70.456ZM351.117 71H346.349V54.168H351.117V71ZM351.565 49.304C351.565 50.1787 351.277 50.872 350.701 51.384C350.147 51.8747 349.485 52.12 348.717 52.12C347.949 52.12 347.277 51.8747 346.701 51.384C346.147 50.872 345.869 50.1787 345.869 49.304C345.869 48.4293 346.147 47.7467 346.701 47.256C347.277 46.744 347.949 46.488 348.717 46.488C349.485 46.488 350.147 46.744 350.701 47.256C351.277 47.7467 351.565 48.4293 351.565 49.304ZM359.663 62.04C359.663 64.7067 360.741 66.04 362.895 66.04C363.386 66.04 363.845 65.976 364.271 65.848C364.698 65.72 365.061 65.5707 365.359 65.4V57.784C365.125 57.7413 364.847 57.7093 364.527 57.688C364.207 57.6453 363.834 57.624 363.407 57.624C362.149 57.624 361.21 58.04 360.591 58.872C359.973 59.704 359.663 60.76 359.663 62.04ZM370.127 68.888C370.127 71.64 369.423 73.6773 368.015 75C366.629 76.344 364.474 77.016 361.551 77.016C360.527 77.016 359.503 76.92 358.479 76.728C357.455 76.5573 356.506 76.3227 355.631 76.024L356.463 72.024C357.21 72.3227 357.989 72.5573 358.799 72.728C359.631 72.8987 360.57 72.984 361.615 72.984C362.981 72.984 363.941 72.6853 364.495 72.088C365.071 71.4907 365.359 70.7227 365.359 69.784V69.176C364.847 69.4107 364.314 69.592 363.759 69.72C363.226 69.8267 362.639 69.88 361.999 69.88C359.674 69.88 357.893 69.1973 356.655 67.832C355.418 66.4453 354.799 64.5147 354.799 62.04C354.799 60.8027 354.991 59.6827 355.375 58.68C355.759 57.656 356.314 56.7813 357.039 56.056C357.786 55.3307 358.693 54.776 359.759 54.392C360.826 53.9867 362.031 53.784 363.375 53.784C363.951 53.784 364.538 53.816 365.135 53.88C365.754 53.9227 366.362 53.9867 366.959 54.072C367.557 54.1573 368.122 54.264 368.655 54.392C369.21 54.4987 369.701 54.616 370.127 54.744V68.888ZM373.799 62.712C373.799 61.2187 374.023 59.9173 374.471 58.808C374.941 57.6773 375.549 56.7387 376.295 55.992C377.042 55.2453 377.895 54.68 378.855 54.296C379.837 53.912 380.839 53.72 381.863 53.72C384.253 53.72 386.141 54.456 387.527 55.928C388.914 57.3787 389.607 59.5227 389.607 62.36C389.607 62.6373 389.597 62.9467 389.575 63.288C389.554 63.608 389.533 63.896 389.511 64.152H378.695C378.802 65.1333 379.261 65.912 380.071 66.488C380.882 67.064 381.97 67.352 383.335 67.352C384.21 67.352 385.063 67.2773 385.895 67.128C386.749 66.9573 387.442 66.7547 387.975 66.52L388.615 70.392C388.359 70.52 388.018 70.648 387.591 70.776C387.165 70.904 386.685 71.0107 386.151 71.096C385.639 71.2027 385.085 71.288 384.487 71.352C383.89 71.416 383.293 71.448 382.695 71.448C381.181 71.448 379.858 71.224 378.727 70.776C377.618 70.328 376.69 69.72 375.943 68.952C375.218 68.1627 374.674 67.2347 374.311 66.168C373.97 65.1013 373.799 63.9493 373.799 62.712ZM384.999 60.888C384.978 60.4827 384.903 60.088 384.775 59.704C384.669 59.32 384.487 58.9787 384.231 58.68C383.997 58.3813 383.687 58.136 383.303 57.944C382.941 57.752 382.482 57.656 381.927 57.656C381.394 57.656 380.935 57.752 380.551 57.944C380.167 58.1147 379.847 58.3493 379.591 58.648C379.335 58.9467 379.133 59.2987 378.983 59.704C378.855 60.088 378.759 60.4827 378.695 60.888H384.999ZM398.119 67.576C398.994 67.576 399.612 67.4907 399.975 67.32C400.338 67.1493 400.519 66.8187 400.519 66.328C400.519 65.944 400.284 65.6133 399.815 65.336C399.346 65.0373 398.631 64.7067 397.671 64.344C396.924 64.0667 396.242 63.7787 395.623 63.48C395.026 63.1813 394.514 62.8293 394.087 62.424C393.66 61.9973 393.33 61.496 393.095 60.92C392.86 60.344 392.743 59.6507 392.743 58.84C392.743 57.2613 393.33 56.0133 394.503 55.096C395.676 54.1787 397.287 53.72 399.335 53.72C400.359 53.72 401.34 53.816 402.279 54.008C403.218 54.1787 403.964 54.3707 404.519 54.584L403.687 58.296C403.132 58.104 402.524 57.9333 401.863 57.784C401.223 57.6347 400.498 57.56 399.687 57.56C398.194 57.56 397.447 57.976 397.447 58.808C397.447 59 397.479 59.1707 397.543 59.32C397.607 59.4693 397.735 59.6187 397.927 59.768C398.119 59.896 398.375 60.0453 398.695 60.216C399.036 60.3653 399.463 60.536 399.975 60.728C401.02 61.112 401.884 61.496 402.567 61.88C403.25 62.2427 403.783 62.648 404.167 63.096C404.572 63.5227 404.85 64.0027 404.999 64.536C405.17 65.0693 405.255 65.688 405.255 66.392C405.255 68.056 404.626 69.3147 403.367 70.168C402.13 71.0213 400.37 71.448 398.087 71.448C396.594 71.448 395.346 71.32 394.343 71.064C393.362 70.808 392.679 70.5947 392.295 70.424L393.095 66.552C393.906 66.872 394.738 67.128 395.591 67.32C396.444 67.4907 397.287 67.576 398.119 67.576ZM408.658 49.976L413.426 49.208V54.168H419.154V58.136H413.426V64.056C413.426 65.0587 413.597 65.8587 413.938 66.456C414.301 67.0533 415.015 67.352 416.082 67.352C416.594 67.352 417.117 67.3093 417.65 67.224C418.205 67.1173 418.706 66.9787 419.154 66.808L419.826 70.52C419.25 70.7547 418.61 70.9573 417.906 71.128C417.202 71.2987 416.338 71.384 415.314 71.384C414.013 71.384 412.935 71.2133 412.082 70.872C411.229 70.5093 410.546 70.0187 410.034 69.4C409.522 68.76 409.159 67.992 408.946 67.096C408.754 66.2 408.658 65.208 408.658 64.12V49.976ZM421.612 62.712C421.612 61.2187 421.836 59.9173 422.284 58.808C422.753 57.6773 423.361 56.7387 424.108 55.992C424.855 55.2453 425.708 54.68 426.668 54.296C427.649 53.912 428.652 53.72 429.676 53.72C432.065 53.72 433.953 54.456 435.34 55.928C436.727 57.3787 437.42 59.5227 437.42 62.36C437.42 62.6373 437.409 62.9467 437.388 63.288C437.367 63.608 437.345 63.896 437.324 64.152H426.508C426.615 65.1333 427.073 65.912 427.884 66.488C428.695 67.064 429.783 67.352 431.148 67.352C432.023 67.352 432.876 67.2773 433.708 67.128C434.561 66.9573 435.255 66.7547 435.788 66.52L436.428 70.392C436.172 70.52 435.831 70.648 435.404 70.776C434.977 70.904 434.497 71.0107 433.964 71.096C433.452 71.2027 432.897 71.288 432.3 71.352C431.703 71.416 431.105 71.448 430.508 71.448C428.993 71.448 427.671 71.224 426.54 70.776C425.431 70.328 424.503 69.72 423.756 68.952C423.031 68.1627 422.487 67.2347 422.124 66.168C421.783 65.1013 421.612 63.9493 421.612 62.712ZM432.812 60.888C432.791 60.4827 432.716 60.088 432.588 59.704C432.481 59.32 432.3 58.9787 432.044 58.68C431.809 58.3813 431.5 58.136 431.116 57.944C430.753 57.752 430.295 57.656 429.74 57.656C429.207 57.656 428.748 57.752 428.364 57.944C427.98 58.1147 427.66 58.3493 427.404 58.648C427.148 58.9467 426.945 59.2987 426.796 59.704C426.668 60.088 426.572 60.4827 426.508 60.888H432.812ZM445.163 62.456C445.163 63.928 445.494 65.112 446.155 66.008C446.817 66.904 447.798 67.352 449.099 67.352C449.526 67.352 449.921 67.3413 450.283 67.32C450.646 67.2773 450.945 67.2347 451.179 67.192V58.52C450.881 58.328 450.486 58.168 449.995 58.04C449.526 57.912 449.046 57.848 448.555 57.848C446.294 57.848 445.163 59.384 445.163 62.456ZM455.947 70.456C455.521 70.584 455.03 70.712 454.475 70.84C453.921 70.9467 453.334 71.0427 452.715 71.128C452.118 71.2133 451.499 71.2773 450.859 71.32C450.241 71.384 449.643 71.416 449.067 71.416C447.681 71.416 446.443 71.2133 445.355 70.808C444.267 70.4027 443.35 69.8267 442.603 69.08C441.857 68.312 441.281 67.3947 440.875 66.328C440.491 65.24 440.299 64.024 440.299 62.68C440.299 61.3147 440.47 60.088 440.811 59C441.153 57.8907 441.643 56.952 442.283 56.184C442.923 55.416 443.702 54.8293 444.619 54.424C445.558 54.0187 446.625 53.816 447.819 53.816C448.481 53.816 449.067 53.88 449.579 54.008C450.113 54.136 450.646 54.3173 451.179 54.552V46.936L455.947 46.168V70.456ZM483.843 62.552C483.843 63.8747 483.651 65.0907 483.267 66.2C482.883 67.288 482.329 68.2267 481.603 69.016C480.878 69.784 480.003 70.3813 478.979 70.808C477.977 71.2347 476.846 71.448 475.587 71.448C474.35 71.448 473.219 71.2347 472.195 70.808C471.193 70.3813 470.329 69.784 469.603 69.016C468.878 68.2267 468.313 67.288 467.907 66.2C467.502 65.0907 467.299 63.8747 467.299 62.552C467.299 61.2293 467.502 60.024 467.907 58.936C468.334 57.848 468.91 56.92 469.635 56.152C470.382 55.384 471.257 54.7867 472.259 54.36C473.283 53.9333 474.393 53.72 475.587 53.72C476.803 53.72 477.913 53.9333 478.915 54.36C479.939 54.7867 480.814 55.384 481.539 56.152C482.265 56.92 482.83 57.848 483.235 58.936C483.641 60.024 483.843 61.2293 483.843 62.552ZM478.979 62.552C478.979 61.08 478.681 59.928 478.083 59.096C477.507 58.2427 476.675 57.816 475.587 57.816C474.499 57.816 473.657 58.2427 473.059 59.096C472.462 59.928 472.163 61.08 472.163 62.552C472.163 64.024 472.462 65.1973 473.059 66.072C473.657 66.9253 474.499 67.352 475.587 67.352C476.675 67.352 477.507 66.9253 478.083 66.072C478.681 65.1973 478.979 64.024 478.979 62.552ZM498.321 62.712C498.321 61.24 497.99 60.0667 497.329 59.192C496.668 58.296 495.686 57.848 494.385 57.848C493.958 57.848 493.564 57.8693 493.201 57.912C492.838 57.9333 492.54 57.9653 492.305 58.008V66.616C492.604 66.808 492.988 66.968 493.457 67.096C493.948 67.224 494.438 67.288 494.929 67.288C497.19 67.288 498.321 65.7627 498.321 62.712ZM503.185 62.584C503.185 63.8853 503.025 65.0693 502.705 66.136C502.385 67.2027 501.916 68.12 501.297 68.888C500.678 69.656 499.91 70.2533 498.993 70.68C498.076 71.1067 497.02 71.32 495.825 71.32C495.164 71.32 494.545 71.256 493.969 71.128C493.393 71 492.838 70.8187 492.305 70.584V76.92H487.537V54.744C487.964 54.616 488.454 54.4987 489.009 54.392C489.564 54.264 490.14 54.1573 490.737 54.072C491.356 53.9867 491.974 53.9227 492.593 53.88C493.233 53.816 493.841 53.784 494.417 53.784C495.804 53.784 497.041 53.9973 498.129 54.424C499.217 54.8293 500.134 55.416 500.881 56.184C501.628 56.9307 502.193 57.848 502.577 58.936C502.982 60.024 503.185 61.24 503.185 62.584ZM506.049 62.712C506.049 61.2187 506.273 59.9173 506.721 58.808C507.191 57.6773 507.799 56.7387 508.545 55.992C509.292 55.2453 510.145 54.68 511.105 54.296C512.087 53.912 513.089 53.72 514.113 53.72C516.503 53.72 518.391 54.456 519.777 55.928C521.164 57.3787 521.857 59.5227 521.857 62.36C521.857 62.6373 521.847 62.9467 521.825 63.288C521.804 63.608 521.783 63.896 521.761 64.152H510.945C511.052 65.1333 511.511 65.912 512.321 66.488C513.132 67.064 514.22 67.352 515.585 67.352C516.46 67.352 517.313 67.2773 518.145 67.128C518.999 66.9573 519.692 66.7547 520.225 66.52L520.865 70.392C520.609 70.52 520.268 70.648 519.841 70.776C519.415 70.904 518.935 71.0107 518.401 71.096C517.889 71.2027 517.335 71.288 516.737 71.352C516.14 71.416 515.543 71.448 514.945 71.448C513.431 71.448 512.108 71.224 510.977 70.776C509.868 70.328 508.94 69.72 508.193 68.952C507.468 68.1627 506.924 67.2347 506.561 66.168C506.22 65.1013 506.049 63.9493 506.049 62.712ZM517.249 60.888C517.228 60.4827 517.153 60.088 517.025 59.704C516.919 59.32 516.737 58.9787 516.481 58.68C516.247 58.3813 515.937 58.136 515.553 57.944C515.191 57.752 514.732 57.656 514.177 57.656C513.644 57.656 513.185 57.752 512.801 57.944C512.417 58.1147 512.097 58.3493 511.841 58.648C511.585 58.9467 511.383 59.2987 511.233 59.704C511.105 60.088 511.009 60.4827 510.945 60.888H517.249ZM525.537 54.744C526.348 54.5093 527.393 54.296 528.673 54.104C529.953 53.8907 531.297 53.784 532.705 53.784C534.134 53.784 535.318 53.976 536.257 54.36C537.217 54.7227 537.974 55.2453 538.529 55.928C539.084 56.6107 539.478 57.4213 539.713 58.36C539.948 59.2987 540.065 60.344 540.065 61.496V71H535.297V62.072C535.297 60.536 535.094 59.448 534.689 58.808C534.284 58.168 533.526 57.848 532.417 57.848C532.076 57.848 531.713 57.8693 531.329 57.912C530.945 57.9333 530.604 57.9653 530.305 58.008V71H525.537V54.744ZM542.941 59.288H552.221V63.608H542.941V59.288ZM560.088 67.576C560.962 67.576 561.581 67.4907 561.944 67.32C562.306 67.1493 562.488 66.8187 562.488 66.328C562.488 65.944 562.253 65.6133 561.784 65.336C561.314 65.0373 560.6 64.7067 559.64 64.344C558.893 64.0667 558.21 63.7787 557.592 63.48C556.994 63.1813 556.482 62.8293 556.056 62.424C555.629 61.9973 555.298 61.496 555.064 60.92C554.829 60.344 554.712 59.6507 554.712 58.84C554.712 57.2613 555.298 56.0133 556.472 55.096C557.645 54.1787 559.256 53.72 561.304 53.72C562.328 53.72 563.309 53.816 564.248 54.008C565.186 54.1787 565.933 54.3707 566.488 54.584L565.656 58.296C565.101 58.104 564.493 57.9333 563.832 57.784C563.192 57.6347 562.466 57.56 561.656 57.56C560.162 57.56 559.416 57.976 559.416 58.808C559.416 59 559.448 59.1707 559.512 59.32C559.576 59.4693 559.704 59.6187 559.896 59.768C560.088 59.896 560.344 60.0453 560.664 60.216C561.005 60.3653 561.432 60.536 561.944 60.728C562.989 61.112 563.853 61.496 564.536 61.88C565.218 62.2427 565.752 62.648 566.136 63.096C566.541 63.5227 566.818 64.0027 566.968 64.536C567.138 65.0693 567.224 65.688 567.224 66.392C567.224 68.056 566.594 69.3147 565.336 70.168C564.098 71.0213 562.338 71.448 560.056 71.448C558.562 71.448 557.314 71.32 556.312 71.064C555.33 70.808 554.648 70.5947 554.264 70.424L555.064 66.552C555.874 66.872 556.706 67.128 557.56 67.32C558.413 67.4907 559.256 67.576 560.088 67.576ZM586.531 62.552C586.531 63.8747 586.339 65.0907 585.955 66.2C585.571 67.288 585.016 68.2267 584.291 69.016C583.566 69.784 582.691 70.3813 581.667 70.808C580.664 71.2347 579.534 71.448 578.275 71.448C577.038 71.448 575.907 71.2347 574.883 70.808C573.88 70.3813 573.016 69.784 572.291 69.016C571.566 68.2267 571 67.288 570.595 66.2C570.19 65.0907 569.987 63.8747 569.987 62.552C569.987 61.2293 570.19 60.024 570.595 58.936C571.022 57.848 571.598 56.92 572.323 56.152C573.07 55.384 573.944 54.7867 574.947 54.36C575.971 53.9333 577.08 53.72 578.275 53.72C579.491 53.72 580.6 53.9333 581.603 54.36C582.627 54.7867 583.502 55.384 584.227 56.152C584.952 56.92 585.518 57.848 585.923 58.936C586.328 60.024 586.531 61.2293 586.531 62.552ZM581.667 62.552C581.667 61.08 581.368 59.928 580.771 59.096C580.195 58.2427 579.363 57.816 578.275 57.816C577.187 57.816 576.344 58.2427 575.747 59.096C575.15 59.928 574.851 61.08 574.851 62.552C574.851 64.024 575.15 65.1973 575.747 66.072C576.344 66.9253 577.187 67.352 578.275 67.352C579.363 67.352 580.195 66.9253 580.771 66.072C581.368 65.1973 581.667 64.024 581.667 62.552ZM604.592 70.424C603.782 70.6587 602.736 70.872 601.456 71.064C600.176 71.2773 598.832 71.384 597.424 71.384C595.995 71.384 594.8 71.192 593.84 70.808C592.902 70.424 592.155 69.8907 591.6 69.208C591.046 68.504 590.651 67.672 590.416 66.712C590.182 65.752 590.064 64.696 590.064 63.544V54.168H594.832V62.968C594.832 64.504 595.035 65.6133 595.44 66.296C595.846 66.9787 596.603 67.32 597.712 67.32C598.054 67.32 598.416 67.3093 598.8 67.288C599.184 67.2453 599.526 67.2027 599.824 67.16V54.168H604.592V70.424ZM619.212 58.392C618.785 58.2853 618.284 58.1787 617.708 58.072C617.132 57.944 616.513 57.88 615.852 57.88C615.553 57.88 615.191 57.912 614.764 57.976C614.359 58.0187 614.049 58.072 613.836 58.136V71H609.068V55.064C609.921 54.7653 610.924 54.488 612.076 54.232C613.249 53.9547 614.551 53.816 615.98 53.816C616.236 53.816 616.545 53.8373 616.908 53.88C617.271 53.9013 617.633 53.944 617.996 54.008C618.359 54.0507 618.721 54.1147 619.084 54.2C619.447 54.264 619.756 54.3493 620.012 54.456L619.212 58.392ZM621.456 62.584C621.456 61.368 621.648 60.2267 622.032 59.16C622.437 58.072 623.013 57.1333 623.76 56.344C624.506 55.5333 625.413 54.8933 626.48 54.424C627.546 53.9547 628.762 53.72 630.128 53.72C631.024 53.72 631.845 53.8053 632.592 53.976C633.338 54.1253 634.064 54.3493 634.768 54.648L633.776 58.456C633.328 58.2853 632.837 58.136 632.304 58.008C631.77 57.88 631.173 57.816 630.512 57.816C629.104 57.816 628.048 58.2533 627.344 59.128C626.661 60.0027 626.32 61.1547 626.32 62.584C626.32 64.0987 626.64 65.272 627.28 66.104C627.941 66.936 629.082 67.352 630.704 67.352C631.28 67.352 631.898 67.2987 632.56 67.192C633.221 67.0853 633.829 66.9147 634.384 66.68L635.056 70.584C634.501 70.8187 633.808 71.0213 632.976 71.192C632.144 71.3627 631.226 71.448 630.224 71.448C628.688 71.448 627.365 71.224 626.256 70.776C625.146 70.3067 624.229 69.6773 623.504 68.888C622.8 68.0987 622.277 67.1707 621.936 66.104C621.616 65.016 621.456 63.8427 621.456 62.584ZM636.643 62.712C636.643 61.2187 636.867 59.9173 637.315 58.808C637.784 57.6773 638.392 56.7387 639.139 55.992C639.886 55.2453 640.739 54.68 641.699 54.296C642.68 53.912 643.683 53.72 644.707 53.72C647.096 53.72 648.984 54.456 650.371 55.928C651.758 57.3787 652.451 59.5227 652.451 62.36C652.451 62.6373 652.44 62.9467 652.419 63.288C652.398 63.608 652.376 63.896 652.355 64.152H641.539C641.646 65.1333 642.104 65.912 642.915 66.488C643.726 67.064 644.814 67.352 646.179 67.352C647.054 67.352 647.907 67.2773 648.739 67.128C649.592 66.9573 650.286 66.7547 650.819 66.52L651.459 70.392C651.203 70.52 650.862 70.648 650.435 70.776C650.008 70.904 649.528 71.0107 648.995 71.096C648.483 71.2027 647.928 71.288 647.331 71.352C646.734 71.416 646.136 71.448 645.539 71.448C644.024 71.448 642.702 71.224 641.571 70.776C640.462 70.328 639.534 69.72 638.787 68.952C638.062 68.1627 637.518 67.2347 637.155 66.168C636.814 65.1013 636.643 63.9493 636.643 62.712ZM647.843 60.888C647.822 60.4827 647.747 60.088 647.619 59.704C647.512 59.32 647.331 58.9787 647.075 58.68C646.84 58.3813 646.531 58.136 646.147 57.944C645.784 57.752 645.326 57.656 644.771 57.656C644.238 57.656 643.779 57.752 643.395 57.944C643.011 58.1147 642.691 58.3493 642.435 58.648C642.179 58.9467 641.976 59.2987 641.827 59.704C641.699 60.088 641.603 60.4827 641.539 60.888H647.843ZM102.492 99.456C102.492 100.928 102.822 102.112 103.484 103.008C104.145 103.904 105.126 104.352 106.428 104.352C106.854 104.352 107.249 104.341 107.612 104.32C107.974 104.277 108.273 104.235 108.508 104.192V95.52C108.209 95.328 107.814 95.168 107.324 95.04C106.854 94.912 106.374 94.848 105.884 94.848C103.622 94.848 102.492 96.384 102.492 99.456ZM113.276 107.456C112.849 107.584 112.358 107.712 111.804 107.84C111.249 107.947 110.662 108.043 110.044 108.128C109.446 108.213 108.828 108.277 108.188 108.32C107.569 108.384 106.972 108.416 106.396 108.416C105.009 108.416 103.772 108.213 102.684 107.808C101.596 107.403 100.678 106.827 99.9315 106.08C99.1848 105.312 98.6088 104.395 98.2035 103.328C97.8195 102.24 97.6275 101.024 97.6275 99.68C97.6275 98.3147 97.7982 97.088 98.1395 96C98.4808 94.8907 98.9715 93.952 99.6115 93.184C100.252 92.416 101.03 91.8293 101.948 91.424C102.886 91.0187 103.953 90.816 105.148 90.816C105.809 90.816 106.396 90.88 106.908 91.008C107.441 91.136 107.974 91.3173 108.508 91.552V83.936L113.276 83.168V107.456ZM124.172 104.672C124.641 104.672 125.089 104.661 125.516 104.64C125.943 104.619 126.284 104.587 126.54 104.544V100.928C126.348 100.885 126.06 100.843 125.676 100.8C125.292 100.757 124.94 100.736 124.62 100.736C124.172 100.736 123.745 100.768 123.34 100.832C122.956 100.875 122.615 100.971 122.316 101.12C122.017 101.269 121.783 101.472 121.612 101.728C121.441 101.984 121.356 102.304 121.356 102.688C121.356 103.435 121.601 103.957 122.092 104.256C122.604 104.533 123.297 104.672 124.172 104.672ZM123.788 90.72C125.196 90.72 126.369 90.88 127.308 91.2C128.247 91.52 128.993 91.9787 129.548 92.576C130.124 93.1733 130.529 93.8987 130.764 94.752C130.999 95.6053 131.116 96.5547 131.116 97.6V107.52C130.433 107.669 129.484 107.84 128.268 108.032C127.052 108.245 125.58 108.352 123.852 108.352C122.764 108.352 121.772 108.256 120.876 108.064C120.001 107.872 119.244 107.563 118.604 107.136C117.964 106.688 117.473 106.112 117.132 105.408C116.791 104.704 116.62 103.84 116.62 102.816C116.62 101.835 116.812 101.003 117.196 100.32C117.601 99.6373 118.135 99.0933 118.796 98.688C119.457 98.2827 120.215 97.9947 121.068 97.824C121.921 97.632 122.807 97.536 123.724 97.536C124.343 97.536 124.887 97.568 125.356 97.632C125.847 97.6747 126.241 97.7387 126.54 97.824V97.376C126.54 96.5653 126.295 95.9147 125.804 95.424C125.313 94.9333 124.46 94.688 123.244 94.688C122.433 94.688 121.633 94.752 120.844 94.88C120.055 94.9867 119.372 95.1467 118.796 95.36L118.188 91.52C118.465 91.4347 118.807 91.3493 119.212 91.264C119.639 91.1573 120.097 91.072 120.588 91.008C121.079 90.9227 121.591 90.8587 122.124 90.816C122.679 90.752 123.233 90.72 123.788 90.72ZM135.268 86.976L140.036 86.208V91.168H145.764V95.136H140.036V101.056C140.036 102.059 140.206 102.859 140.548 103.456C140.91 104.053 141.625 104.352 142.692 104.352C143.204 104.352 143.726 104.309 144.26 104.224C144.814 104.117 145.316 103.979 145.764 103.808L146.436 107.52C145.86 107.755 145.22 107.957 144.516 108.128C143.812 108.299 142.948 108.384 141.924 108.384C140.622 108.384 139.545 108.213 138.692 107.872C137.838 107.509 137.156 107.019 136.644 106.4C136.132 105.76 135.769 104.992 135.556 104.096C135.364 103.2 135.268 102.208 135.268 101.12V86.976ZM155.453 104.672C155.923 104.672 156.371 104.661 156.797 104.64C157.224 104.619 157.565 104.587 157.821 104.544V100.928C157.629 100.885 157.341 100.843 156.957 100.8C156.573 100.757 156.221 100.736 155.901 100.736C155.453 100.736 155.027 100.768 154.621 100.832C154.237 100.875 153.896 100.971 153.597 101.12C153.299 101.269 153.064 101.472 152.893 101.728C152.723 101.984 152.637 102.304 152.637 102.688C152.637 103.435 152.883 103.957 153.373 104.256C153.885 104.533 154.579 104.672 155.453 104.672ZM155.069 90.72C156.477 90.72 157.651 90.88 158.589 91.2C159.528 91.52 160.275 91.9787 160.829 92.576C161.405 93.1733 161.811 93.8987 162.045 94.752C162.28 95.6053 162.397 96.5547 162.397 97.6V107.52C161.715 107.669 160.765 107.84 159.549 108.032C158.333 108.245 156.861 108.352 155.133 108.352C154.045 108.352 153.053 108.256 152.157 108.064C151.283 107.872 150.525 107.563 149.885 107.136C149.245 106.688 148.755 106.112 148.413 105.408C148.072 104.704 147.901 103.84 147.901 102.816C147.901 101.835 148.093 101.003 148.477 100.32C148.883 99.6373 149.416 99.0933 150.077 98.688C150.739 98.2827 151.496 97.9947 152.349 97.824C153.203 97.632 154.088 97.536 155.005 97.536C155.624 97.536 156.168 97.568 156.637 97.632C157.128 97.6747 157.523 97.7387 157.821 97.824V97.376C157.821 96.5653 157.576 95.9147 157.085 95.424C156.595 94.9333 155.741 94.688 154.525 94.688C153.715 94.688 152.915 94.752 152.125 94.88C151.336 94.9867 150.653 95.1467 150.077 95.36L149.469 91.52C149.747 91.4347 150.088 91.3493 150.493 91.264C150.92 91.1573 151.379 91.072 151.869 91.008C152.36 90.9227 152.872 90.8587 153.405 90.816C153.96 90.752 154.515 90.72 155.069 90.72ZM178.972 108C177.884 105.867 176.775 103.371 175.644 100.512C174.535 97.6533 173.479 94.5387 172.476 91.168H177.532C177.746 92 177.991 92.9067 178.268 93.888C178.567 94.848 178.866 95.8293 179.164 96.832C179.484 97.8133 179.794 98.7733 180.092 99.712C180.412 100.651 180.722 101.504 181.02 102.272C181.298 101.504 181.596 100.651 181.916 99.712C182.236 98.7733 182.546 97.8133 182.844 96.832C183.164 95.8293 183.463 94.848 183.74 93.888C184.039 92.9067 184.295 92 184.508 91.168H189.436C188.434 94.5387 187.367 97.6533 186.236 100.512C185.127 103.371 184.028 105.867 182.94 108H178.972ZM196.758 108H191.99V91.168H196.758V108ZM197.206 86.304C197.206 87.1787 196.918 87.872 196.342 88.384C195.787 88.8747 195.126 89.12 194.358 89.12C193.59 89.12 192.918 88.8747 192.342 88.384C191.787 87.872 191.51 87.1787 191.51 86.304C191.51 85.4293 191.787 84.7467 192.342 84.256C192.918 83.744 193.59 83.488 194.358 83.488C195.126 83.488 195.787 83.744 196.342 84.256C196.918 84.7467 197.206 85.4293 197.206 86.304ZM206.072 104.576C206.947 104.576 207.565 104.491 207.928 104.32C208.291 104.149 208.472 103.819 208.472 103.328C208.472 102.944 208.237 102.613 207.768 102.336C207.299 102.037 206.584 101.707 205.624 101.344C204.877 101.067 204.195 100.779 203.576 100.48C202.979 100.181 202.467 99.8293 202.04 99.424C201.613 98.9973 201.283 98.496 201.048 97.92C200.813 97.344 200.696 96.6507 200.696 95.84C200.696 94.2613 201.283 93.0133 202.456 92.096C203.629 91.1787 205.24 90.72 207.288 90.72C208.312 90.72 209.293 90.816 210.232 91.008C211.171 91.1787 211.917 91.3707 212.472 91.584L211.64 95.296C211.085 95.104 210.477 94.9333 209.816 94.784C209.176 94.6347 208.451 94.56 207.64 94.56C206.147 94.56 205.4 94.976 205.4 95.808C205.4 96 205.432 96.1707 205.496 96.32C205.56 96.4693 205.688 96.6187 205.88 96.768C206.072 96.896 206.328 97.0453 206.648 97.216C206.989 97.3653 207.416 97.536 207.928 97.728C208.973 98.112 209.837 98.496 210.52 98.88C211.203 99.2427 211.736 99.648 212.12 100.096C212.525 100.523 212.803 101.003 212.952 101.536C213.123 102.069 213.208 102.688 213.208 103.392C213.208 105.056 212.579 106.315 211.32 107.168C210.083 108.021 208.323 108.448 206.04 108.448C204.547 108.448 203.299 108.32 202.296 108.064C201.315 107.808 200.632 107.595 200.248 107.424L201.048 103.552C201.859 103.872 202.691 104.128 203.544 104.32C204.397 104.491 205.24 104.576 206.072 104.576ZM231.139 107.424C230.329 107.659 229.283 107.872 228.003 108.064C226.723 108.277 225.379 108.384 223.971 108.384C222.542 108.384 221.347 108.192 220.387 107.808C219.449 107.424 218.702 106.891 218.147 106.208C217.593 105.504 217.198 104.672 216.963 103.712C216.729 102.752 216.611 101.696 216.611 100.544V91.168H221.379V99.968C221.379 101.504 221.582 102.613 221.987 103.296C222.393 103.979 223.15 104.32 224.259 104.32C224.601 104.32 224.963 104.309 225.347 104.288C225.731 104.245 226.073 104.203 226.371 104.16V91.168H231.139V107.424ZM242.047 104.672C242.516 104.672 242.964 104.661 243.391 104.64C243.818 104.619 244.159 104.587 244.415 104.544V100.928C244.223 100.885 243.935 100.843 243.551 100.8C243.167 100.757 242.815 100.736 242.495 100.736C242.047 100.736 241.62 100.768 241.215 100.832C240.831 100.875 240.49 100.971 240.191 101.12C239.892 101.269 239.658 101.472 239.487 101.728C239.316 101.984 239.231 102.304 239.231 102.688C239.231 103.435 239.476 103.957 239.967 104.256C240.479 104.533 241.172 104.672 242.047 104.672ZM241.663 90.72C243.071 90.72 244.244 90.88 245.183 91.2C246.122 91.52 246.868 91.9787 247.423 92.576C247.999 93.1733 248.404 93.8987 248.639 94.752C248.874 95.6053 248.991 96.5547 248.991 97.6V107.52C248.308 107.669 247.359 107.84 246.143 108.032C244.927 108.245 243.455 108.352 241.727 108.352C240.639 108.352 239.647 108.256 238.751 108.064C237.876 107.872 237.119 107.563 236.479 107.136C235.839 106.688 235.348 106.112 235.007 105.408C234.666 104.704 234.495 103.84 234.495 102.816C234.495 101.835 234.687 101.003 235.071 100.32C235.476 99.6373 236.01 99.0933 236.671 98.688C237.332 98.2827 238.09 97.9947 238.943 97.824C239.796 97.632 240.682 97.536 241.599 97.536C242.218 97.536 242.762 97.568 243.231 97.632C243.722 97.6747 244.116 97.7387 244.415 97.824V97.376C244.415 96.5653 244.17 95.9147 243.679 95.424C243.188 94.9333 242.335 94.688 241.119 94.688C240.308 94.688 239.508 94.752 238.719 94.88C237.93 94.9867 237.247 95.1467 236.671 95.36L236.063 91.52C236.34 91.4347 236.682 91.3493 237.087 91.264C237.514 91.1573 237.972 91.072 238.463 91.008C238.954 90.9227 239.466 90.8587 239.999 90.816C240.554 90.752 241.108 90.72 241.663 90.72ZM260.023 108.32C258.636 108.299 257.505 108.149 256.631 107.872C255.777 107.595 255.095 107.211 254.583 106.72C254.092 106.208 253.751 105.6 253.559 104.896C253.388 104.171 253.303 103.36 253.303 102.464V83.936L258.071 83.168V101.504C258.071 101.931 258.103 102.315 258.167 102.656C258.231 102.997 258.348 103.285 258.519 103.52C258.711 103.755 258.977 103.947 259.319 104.096C259.66 104.245 260.119 104.341 260.695 104.384L260.023 108.32ZM268.196 108H263.428V91.168H268.196V108ZM268.644 86.304C268.644 87.1787 268.356 87.872 267.78 88.384C267.225 88.8747 266.564 89.12 265.796 89.12C265.028 89.12 264.356 88.8747 263.78 88.384C263.225 87.872 262.948 87.1787 262.948 86.304C262.948 85.4293 263.225 84.7467 263.78 84.256C264.356 83.744 265.028 83.488 265.796 83.488C266.564 83.488 267.225 83.744 267.78 84.256C268.356 84.7467 268.644 85.4293 268.644 86.304ZM285.318 94.368C284.934 94.7947 284.411 95.3707 283.75 96.096C283.11 96.8213 282.416 97.6213 281.67 98.496C280.923 99.3707 280.166 100.288 279.398 101.248C278.651 102.208 277.968 103.136 277.35 104.032H285.478V108H271.558V105.184C272.006 104.416 272.539 103.595 273.158 102.72C273.798 101.824 274.459 100.928 275.141 100.032C275.846 99.136 276.539 98.272 277.222 97.44C277.904 96.5867 278.534 95.8187 279.11 95.136H271.942V91.168H285.318V94.368ZM287.409 99.712C287.409 98.2187 287.633 96.9173 288.081 95.808C288.55 94.6773 289.158 93.7387 289.905 92.992C290.651 92.2453 291.505 91.68 292.465 91.296C293.446 90.912 294.449 90.72 295.473 90.72C297.862 90.72 299.75 91.456 301.137 92.928C302.523 94.3787 303.217 96.5227 303.217 99.36C303.217 99.6373 303.206 99.9467 303.185 100.288C303.163 100.608 303.142 100.896 303.121 101.152H292.305C292.411 102.133 292.87 102.912 293.681 103.488C294.491 104.064 295.579 104.352 296.945 104.352C297.819 104.352 298.673 104.277 299.505 104.128C300.358 103.957 301.051 103.755 301.585 103.52L302.225 107.392C301.969 107.52 301.627 107.648 301.201 107.776C300.774 107.904 300.294 108.011 299.761 108.096C299.249 108.203 298.694 108.288 298.097 108.352C297.499 108.416 296.902 108.448 296.305 108.448C294.79 108.448 293.467 108.224 292.337 107.776C291.227 107.328 290.299 106.72 289.553 105.952C288.827 105.163 288.283 104.235 287.921 103.168C287.579 102.101 287.409 100.949 287.409 99.712ZM298.609 97.888C298.587 97.4827 298.513 97.088 298.385 96.704C298.278 96.32 298.097 95.9787 297.841 95.68C297.606 95.3813 297.297 95.136 296.913 94.944C296.55 94.752 296.091 94.656 295.537 94.656C295.003 94.656 294.545 94.752 294.161 94.944C293.777 95.1147 293.457 95.3493 293.201 95.648C292.945 95.9467 292.742 96.2987 292.593 96.704C292.465 97.088 292.369 97.4827 292.305 97.888H298.609ZM317.04 95.392C316.614 95.2853 316.112 95.1787 315.536 95.072C314.96 94.944 314.342 94.88 313.68 94.88C313.382 94.88 313.019 94.912 312.592 94.976C312.187 95.0187 311.878 95.072 311.664 95.136V108H306.896V92.064C307.75 91.7653 308.752 91.488 309.904 91.232C311.078 90.9547 312.379 90.816 313.808 90.816C314.064 90.816 314.374 90.8373 314.736 90.88C315.099 90.9013 315.462 90.944 315.824 91.008C316.187 91.0507 316.55 91.1147 316.912 91.2C317.275 91.264 317.584 91.3493 317.84 91.456L317.04 95.392ZM327.924 86.976L332.692 86.208V91.168H338.42V95.136H332.692V101.056C332.692 102.059 332.862 102.859 333.204 103.456C333.566 104.053 334.281 104.352 335.348 104.352C335.86 104.352 336.382 104.309 336.916 104.224C337.47 104.117 337.972 103.979 338.42 103.808L339.092 107.52C338.516 107.755 337.876 107.957 337.172 108.128C336.468 108.299 335.604 108.384 334.58 108.384C333.278 108.384 332.201 108.213 331.348 107.872C330.494 107.509 329.812 107.019 329.3 106.4C328.788 105.76 328.425 104.992 328.212 104.096C328.02 103.2 327.924 102.208 327.924 101.12V86.976ZM357.422 99.552C357.422 100.875 357.23 102.091 356.846 103.2C356.462 104.288 355.907 105.227 355.182 106.016C354.456 106.784 353.582 107.381 352.558 107.808C351.555 108.235 350.424 108.448 349.166 108.448C347.928 108.448 346.798 108.235 345.774 107.808C344.771 107.381 343.907 106.784 343.182 106.016C342.456 105.227 341.891 104.288 341.486 103.2C341.08 102.091 340.878 100.875 340.878 99.552C340.878 98.2293 341.08 97.024 341.486 95.936C341.912 94.848 342.488 93.92 343.214 93.152C343.96 92.384 344.835 91.7867 345.838 91.36C346.862 90.9333 347.971 90.72 349.166 90.72C350.382 90.72 351.491 90.9333 352.494 91.36C353.518 91.7867 354.392 92.384 355.118 93.152C355.843 93.92 356.408 94.848 356.814 95.936C357.219 97.024 357.422 98.2293 357.422 99.552ZM352.558 99.552C352.558 98.08 352.259 96.928 351.662 96.096C351.086 95.2427 350.254 94.816 349.166 94.816C348.078 94.816 347.235 95.2427 346.638 96.096C346.04 96.928 345.742 98.08 345.742 99.552C345.742 101.024 346.04 102.197 346.638 103.072C347.235 103.925 348.078 104.352 349.166 104.352C350.254 104.352 351.086 103.925 351.662 103.072C352.259 102.197 352.558 101.024 352.558 99.552ZM376.859 99.552C376.859 100.875 376.667 102.091 376.283 103.2C375.899 104.288 375.344 105.227 374.619 106.016C373.894 106.784 373.019 107.381 371.995 107.808C370.992 108.235 369.862 108.448 368.603 108.448C367.366 108.448 366.235 108.235 365.211 107.808C364.208 107.381 363.344 106.784 362.619 106.016C361.894 105.227 361.328 104.288 360.923 103.2C360.518 102.091 360.315 100.875 360.315 99.552C360.315 98.2293 360.518 97.024 360.923 95.936C361.35 94.848 361.926 93.92 362.651 93.152C363.398 92.384 364.272 91.7867 365.275 91.36C366.299 90.9333 367.408 90.72 368.603 90.72C369.819 90.72 370.928 90.9333 371.931 91.36C372.955 91.7867 373.83 92.384 374.555 93.152C375.28 93.92 375.846 94.848 376.251 95.936C376.656 97.024 376.859 98.2293 376.859 99.552ZM371.995 99.552C371.995 98.08 371.696 96.928 371.099 96.096C370.523 95.2427 369.691 94.816 368.603 94.816C367.515 94.816 366.672 95.2427 366.075 96.096C365.478 96.928 365.179 98.08 365.179 99.552C365.179 101.024 365.478 102.197 366.075 103.072C366.672 103.925 367.515 104.352 368.603 104.352C369.691 104.352 370.523 103.925 371.099 103.072C371.696 102.197 371.995 101.024 371.995 99.552ZM387.273 108.32C385.886 108.299 384.755 108.149 383.881 107.872C383.027 107.595 382.345 107.211 381.833 106.72C381.342 106.208 381.001 105.6 380.809 104.896C380.638 104.171 380.553 103.36 380.553 102.464V83.936L385.321 83.168V101.504C385.321 101.931 385.353 102.315 385.417 102.656C385.481 102.997 385.598 103.285 385.769 103.52C385.961 103.755 386.227 103.947 386.569 104.096C386.91 104.245 387.369 104.341 387.945 104.384L387.273 108.32ZM405.661 83.168C406.557 83.168 407.378 83.264 408.125 83.456C408.872 83.6267 409.448 83.7973 409.853 83.968L408.925 87.776C408.498 87.584 408.029 87.4453 407.517 87.36C407.026 87.2533 406.568 87.2 406.141 87.2C405.565 87.2 405.074 87.2853 404.669 87.456C404.285 87.6053 403.976 87.8187 403.741 88.096C403.528 88.3733 403.368 88.704 403.261 89.088C403.176 89.472 403.133 89.888 403.133 90.336V91.168H409.021V95.136H403.133V108H398.365V90.272C398.365 88.096 398.973 86.368 400.189 85.088C401.426 83.808 403.25 83.168 405.661 83.168ZM427.359 99.552C427.359 100.875 427.167 102.091 426.783 103.2C426.399 104.288 425.844 105.227 425.119 106.016C424.394 106.784 423.519 107.381 422.495 107.808C421.492 108.235 420.362 108.448 419.103 108.448C417.866 108.448 416.735 108.235 415.711 107.808C414.708 107.381 413.844 106.784 413.119 106.016C412.394 105.227 411.828 104.288 411.423 103.2C411.018 102.091 410.815 100.875 410.815 99.552C410.815 98.2293 411.018 97.024 411.423 95.936C411.85 94.848 412.426 93.92 413.151 93.152C413.898 92.384 414.772 91.7867 415.775 91.36C416.799 90.9333 417.908 90.72 419.103 90.72C420.319 90.72 421.428 90.9333 422.431 91.36C423.455 91.7867 424.33 92.384 425.055 93.152C425.78 93.92 426.346 94.848 426.751 95.936C427.156 97.024 427.359 98.2293 427.359 99.552ZM422.495 99.552C422.495 98.08 422.196 96.928 421.599 96.096C421.023 95.2427 420.191 94.816 419.103 94.816C418.015 94.816 417.172 95.2427 416.575 96.096C415.978 96.928 415.679 98.08 415.679 99.552C415.679 101.024 415.978 102.197 416.575 103.072C417.172 103.925 418.015 104.352 419.103 104.352C420.191 104.352 421.023 103.925 421.599 103.072C422.196 102.197 422.495 101.024 422.495 99.552ZM441.197 95.392C440.77 95.2853 440.269 95.1787 439.693 95.072C439.117 94.944 438.498 94.88 437.837 94.88C437.538 94.88 437.175 94.912 436.749 94.976C436.343 95.0187 436.034 95.072 435.821 95.136V108H431.053V92.064C431.906 91.7653 432.909 91.488 434.061 91.232C435.234 90.9547 436.535 90.816 437.965 90.816C438.221 90.816 438.53 90.8373 438.893 90.88C439.255 90.9013 439.618 90.944 439.981 91.008C440.343 91.0507 440.706 91.1147 441.069 91.2C441.431 91.264 441.741 91.3493 441.997 91.456L441.197 95.392ZM467.184 91.168C466.224 94.4107 465.221 97.4507 464.176 100.288C463.131 103.125 461.989 105.877 460.752 108.544C460.304 109.504 459.856 110.315 459.408 110.976C458.96 111.659 458.469 112.213 457.936 112.64C457.403 113.088 456.795 113.408 456.112 113.6C455.451 113.813 454.672 113.92 453.776 113.92C453.029 113.92 452.336 113.845 451.696 113.696C451.077 113.568 450.565 113.419 450.16 113.248L450.992 109.44C451.483 109.611 451.92 109.728 452.304 109.792C452.688 109.856 453.093 109.888 453.52 109.888C454.373 109.888 455.024 109.653 455.472 109.184C455.941 108.736 456.336 108.107 456.656 107.296C455.568 105.163 454.48 102.773 453.392 100.128C452.304 97.4613 451.28 94.4747 450.32 91.168H455.376C455.589 92 455.835 92.9067 456.112 93.888C456.411 94.848 456.72 95.8293 457.04 96.832C457.36 97.8133 457.68 98.7733 458 99.712C458.341 100.651 458.661 101.504 458.96 102.272C459.237 101.504 459.525 100.651 459.824 99.712C460.123 98.7733 460.411 97.8133 460.688 96.832C460.987 95.8293 461.264 94.848 461.52 93.888C461.797 92.9067 462.043 92 462.256 91.168H467.184ZM485.047 99.552C485.047 100.875 484.855 102.091 484.471 103.2C484.087 104.288 483.532 105.227 482.807 106.016C482.081 106.784 481.207 107.381 480.183 107.808C479.18 108.235 478.049 108.448 476.791 108.448C475.553 108.448 474.423 108.235 473.399 107.808C472.396 107.381 471.532 106.784 470.807 106.016C470.081 105.227 469.516 104.288 469.111 103.2C468.705 102.091 468.503 100.875 468.503 99.552C468.503 98.2293 468.705 97.024 469.111 95.936C469.537 94.848 470.113 93.92 470.839 93.152C471.585 92.384 472.46 91.7867 473.463 91.36C474.487 90.9333 475.596 90.72 476.791 90.72C478.007 90.72 479.116 90.9333 480.119 91.36C481.143 91.7867 482.017 92.384 482.743 93.152C483.468 93.92 484.033 94.848 484.439 95.936C484.844 97.024 485.047 98.2293 485.047 99.552ZM480.183 99.552C480.183 98.08 479.884 96.928 479.287 96.096C478.711 95.2427 477.879 94.816 476.791 94.816C475.703 94.816 474.86 95.2427 474.263 96.096C473.665 96.928 473.367 98.08 473.367 99.552C473.367 101.024 473.665 102.197 474.263 103.072C474.86 103.925 475.703 104.352 476.791 104.352C477.879 104.352 478.711 103.925 479.287 103.072C479.884 102.197 480.183 101.024 480.183 99.552ZM503.108 107.424C502.297 107.659 501.252 107.872 499.972 108.064C498.692 108.277 497.348 108.384 495.94 108.384C494.511 108.384 493.316 108.192 492.356 107.808C491.417 107.424 490.671 106.891 490.116 106.208C489.561 105.504 489.167 104.672 488.932 103.712C488.697 102.752 488.58 101.696 488.58 100.544V91.168H493.348V99.968C493.348 101.504 493.551 102.613 493.956 103.296C494.361 103.979 495.119 104.32 496.228 104.32C496.569 104.32 496.932 104.309 497.316 104.288C497.7 104.245 498.041 104.203 498.34 104.16V91.168H503.108V107.424ZM517.728 95.392C517.301 95.2853 516.8 95.1787 516.224 95.072C515.648 94.944 515.029 94.88 514.368 94.88C514.069 94.88 513.706 94.912 513.28 94.976C512.874 95.0187 512.565 95.072 512.352 95.136V108H507.584V92.064C508.437 91.7653 509.44 91.488 510.592 91.232C511.765 90.9547 513.066 90.816 514.496 90.816C514.752 90.816 515.061 90.8373 515.424 90.88C515.786 90.9013 516.149 90.944 516.512 91.008C516.874 91.0507 517.237 91.1147 517.6 91.2C517.962 91.264 518.272 91.3493 518.528 91.456L517.728 95.392ZM535.139 104.192C535.843 104.192 536.419 104.139 536.867 104.032C537.337 103.904 537.71 103.744 537.987 103.552C538.265 103.339 538.457 103.093 538.563 102.816C538.67 102.539 538.723 102.229 538.723 101.888C538.723 101.163 538.382 100.565 537.699 100.096C537.017 99.6053 535.843 99.0827 534.179 98.528C533.454 98.272 532.729 97.984 532.003 97.664C531.278 97.3227 530.627 96.9067 530.051 96.416C529.475 95.904 529.006 95.296 528.643 94.592C528.281 93.8667 528.099 92.992 528.099 91.968C528.099 90.944 528.291 90.0267 528.675 89.216C529.059 88.384 529.603 87.68 530.307 87.104C531.011 86.528 531.865 86.0907 532.867 85.792C533.87 85.472 535.001 85.312 536.259 85.312C537.753 85.312 539.043 85.472 540.131 85.792C541.219 86.112 542.115 86.464 542.819 86.848L541.379 90.784C540.761 90.464 540.067 90.1867 539.299 89.952C538.553 89.696 537.646 89.568 536.579 89.568C535.385 89.568 534.521 89.7387 533.987 90.08C533.475 90.4 533.219 90.9013 533.219 91.584C533.219 91.9893 533.315 92.3307 533.507 92.608C533.699 92.8853 533.966 93.1413 534.307 93.376C534.67 93.5893 535.075 93.792 535.523 93.984C535.993 94.1547 536.505 94.336 537.059 94.528C538.211 94.9547 539.214 95.3813 540.067 95.808C540.921 96.2133 541.625 96.6933 542.179 97.248C542.755 97.8027 543.182 98.4533 543.459 99.2C543.737 99.9467 543.875 100.853 543.875 101.92C543.875 103.989 543.15 105.6 541.699 106.752C540.249 107.883 538.062 108.448 535.139 108.448C534.158 108.448 533.273 108.384 532.483 108.256C531.694 108.149 530.99 108.011 530.371 107.84C529.774 107.669 529.251 107.488 528.803 107.296C528.377 107.104 528.014 106.923 527.715 106.752L529.123 102.784C529.785 103.147 530.595 103.477 531.555 103.776C532.537 104.053 533.731 104.192 535.139 104.192ZM556.644 99.072C556.644 97.536 556.442 96.448 556.036 95.808C555.652 95.168 554.98 94.848 554.02 94.848C553.722 94.848 553.412 94.8693 553.092 94.912C552.772 94.9333 552.463 94.9653 552.164 95.008V108H547.396V91.744C547.802 91.6373 548.271 91.5307 548.804 91.424C549.359 91.296 549.935 91.1893 550.532 91.104C551.151 90.9973 551.78 90.9227 552.42 90.88C553.06 90.816 553.69 90.784 554.308 90.784C555.524 90.784 556.506 90.944 557.252 91.264C558.02 91.5627 558.65 91.9253 559.14 92.352C559.823 91.8613 560.602 91.4773 561.476 91.2C562.372 90.9227 563.194 90.784 563.94 90.784C565.284 90.784 566.383 90.976 567.236 91.36C568.111 91.7227 568.804 92.2453 569.316 92.928C569.828 93.6107 570.18 94.4213 570.372 95.36C570.564 96.2987 570.66 97.344 570.66 98.496V108H565.892V99.072C565.892 97.536 565.69 96.448 565.284 95.808C564.9 95.168 564.228 94.848 563.268 94.848C563.012 94.848 562.65 94.912 562.18 95.04C561.732 95.168 561.359 95.328 561.06 95.52C561.21 96.0107 561.306 96.5333 561.348 97.088C561.391 97.6213 561.412 98.1973 561.412 98.816V108H556.644V99.072ZM581.422 104.672C581.891 104.672 582.339 104.661 582.766 104.64C583.193 104.619 583.534 104.587 583.79 104.544V100.928C583.598 100.885 583.31 100.843 582.926 100.8C582.542 100.757 582.19 100.736 581.87 100.736C581.422 100.736 580.995 100.768 580.59 100.832C580.206 100.875 579.865 100.971 579.566 101.12C579.267 101.269 579.033 101.472 578.862 101.728C578.691 101.984 578.606 102.304 578.606 102.688C578.606 103.435 578.851 103.957 579.342 104.256C579.854 104.533 580.547 104.672 581.422 104.672ZM581.038 90.72C582.446 90.72 583.619 90.88 584.558 91.2C585.497 91.52 586.243 91.9787 586.798 92.576C587.374 93.1733 587.779 93.8987 588.014 94.752C588.249 95.6053 588.366 96.5547 588.366 97.6V107.52C587.683 107.669 586.734 107.84 585.518 108.032C584.302 108.245 582.83 108.352 581.102 108.352C580.014 108.352 579.022 108.256 578.126 108.064C577.251 107.872 576.494 107.563 575.854 107.136C575.214 106.688 574.723 106.112 574.382 105.408C574.041 104.704 573.87 103.84 573.87 102.816C573.87 101.835 574.062 101.003 574.446 100.32C574.851 99.6373 575.385 99.0933 576.046 98.688C576.707 98.2827 577.465 97.9947 578.318 97.824C579.171 97.632 580.057 97.536 580.974 97.536C581.593 97.536 582.137 97.568 582.606 97.632C583.097 97.6747 583.491 97.7387 583.79 97.824V97.376C583.79 96.5653 583.545 95.9147 583.054 95.424C582.563 94.9333 581.71 94.688 580.494 94.688C579.683 94.688 578.883 94.752 578.094 94.88C577.305 94.9867 576.622 95.1467 576.046 95.36L575.438 91.52C575.715 91.4347 576.057 91.3493 576.462 91.264C576.889 91.1573 577.347 91.072 577.838 91.008C578.329 90.9227 578.841 90.8587 579.374 90.816C579.929 90.752 580.483 90.72 581.038 90.72ZM597.51 104.576C598.384 104.576 599.003 104.491 599.366 104.32C599.728 104.149 599.91 103.819 599.91 103.328C599.91 102.944 599.675 102.613 599.206 102.336C598.736 102.037 598.022 101.707 597.062 101.344C596.315 101.067 595.632 100.779 595.014 100.48C594.416 100.181 593.904 99.8293 593.478 99.424C593.051 98.9973 592.72 98.496 592.486 97.92C592.251 97.344 592.134 96.6507 592.134 95.84C592.134 94.2613 592.72 93.0133 593.894 92.096C595.067 91.1787 596.678 90.72 598.726 90.72C599.75 90.72 600.731 90.816 601.67 91.008C602.608 91.1787 603.355 91.3707 603.91 91.584L603.078 95.296C602.523 95.104 601.915 94.9333 601.254 94.784C600.614 94.6347 599.888 94.56 599.078 94.56C597.584 94.56 596.838 94.976 596.838 95.808C596.838 96 596.87 96.1707 596.934 96.32C596.998 96.4693 597.126 96.6187 597.318 96.768C597.51 96.896 597.766 97.0453 598.086 97.216C598.427 97.3653 598.854 97.536 599.366 97.728C600.411 98.112 601.275 98.496 601.958 98.88C602.64 99.2427 603.174 99.648 603.558 100.096C603.963 100.523 604.24 101.003 604.39 101.536C604.56 102.069 604.646 102.688 604.646 103.392C604.646 105.056 604.016 106.315 602.758 107.168C601.52 108.021 599.76 108.448 597.478 108.448C595.984 108.448 594.736 108.32 593.734 108.064C592.752 107.808 592.07 107.595 591.686 107.424L592.486 103.552C593.296 103.872 594.128 104.128 594.982 104.32C595.835 104.491 596.678 104.576 597.51 104.576ZM608.209 108V83.936L612.977 83.168V91.232C613.297 91.1253 613.702 91.0293 614.193 90.944C614.705 90.8373 615.195 90.784 615.665 90.784C617.03 90.784 618.161 90.976 619.057 91.36C619.974 91.7227 620.699 92.2453 621.233 92.928C621.787 93.6107 622.171 94.4213 622.385 95.36C622.619 96.2987 622.737 97.344 622.737 98.496V108H617.969V99.072C617.969 97.536 617.766 96.448 617.361 95.808C616.977 95.168 616.251 94.848 615.185 94.848C614.758 94.848 614.353 94.8907 613.969 94.976C613.606 95.04 613.275 95.1147 612.977 95.2V108H608.209ZM315.884 132.392C315.457 132.285 314.956 132.179 314.38 132.072C313.804 131.944 313.185 131.88 312.524 131.88C312.225 131.88 311.863 131.912 311.436 131.976C311.031 132.019 310.721 132.072 310.508 132.136V145H305.74V129.064C306.593 128.765 307.596 128.488 308.748 128.232C309.921 127.955 311.223 127.816 312.652 127.816C312.908 127.816 313.217 127.837 313.58 127.88C313.943 127.901 314.305 127.944 314.668 128.008C315.031 128.051 315.393 128.115 315.756 128.2C316.119 128.264 316.428 128.349 316.684 128.456L315.884 132.392ZM318.128 136.712C318.128 135.219 318.352 133.917 318.799 132.808C319.269 131.677 319.877 130.739 320.624 129.992C321.37 129.245 322.224 128.68 323.184 128.296C324.165 127.912 325.168 127.72 326.192 127.72C328.581 127.72 330.469 128.456 331.856 129.928C333.242 131.379 333.936 133.523 333.936 136.36C333.936 136.637 333.925 136.947 333.904 137.288C333.882 137.608 333.861 137.896 333.84 138.152H323.024C323.13 139.133 323.589 139.912 324.4 140.488C325.21 141.064 326.298 141.352 327.664 141.352C328.538 141.352 329.392 141.277 330.224 141.128C331.077 140.957 331.77 140.755 332.304 140.52L332.944 144.392C332.688 144.52 332.346 144.648 331.92 144.776C331.493 144.904 331.013 145.011 330.48 145.096C329.968 145.203 329.413 145.288 328.816 145.352C328.218 145.416 327.621 145.448 327.024 145.448C325.509 145.448 324.186 145.224 323.056 144.776C321.946 144.328 321.018 143.72 320.272 142.952C319.546 142.163 319.002 141.235 318.64 140.168C318.298 139.101 318.128 137.949 318.128 136.712ZM329.328 134.888C329.306 134.483 329.232 134.088 329.104 133.704C328.997 133.32 328.816 132.979 328.56 132.68C328.325 132.381 328.016 132.136 327.632 131.944C327.269 131.752 326.81 131.656 326.256 131.656C325.722 131.656 325.264 131.752 324.88 131.944C324.496 132.115 324.176 132.349 323.92 132.648C323.664 132.947 323.461 133.299 323.312 133.704C323.184 134.088 323.088 134.483 323.024 134.888H329.328ZM342.447 141.576C343.322 141.576 343.94 141.491 344.303 141.32C344.666 141.149 344.847 140.819 344.847 140.328C344.847 139.944 344.612 139.613 344.143 139.336C343.674 139.037 342.959 138.707 341.999 138.344C341.252 138.067 340.57 137.779 339.951 137.48C339.354 137.181 338.842 136.829 338.415 136.424C337.988 135.997 337.658 135.496 337.423 134.92C337.188 134.344 337.071 133.651 337.071 132.84C337.071 131.261 337.658 130.013 338.831 129.096C340.004 128.179 341.615 127.72 343.663 127.72C344.687 127.72 345.668 127.816 346.607 128.008C347.546 128.179 348.292 128.371 348.847 128.584L348.015 132.296C347.46 132.104 346.852 131.933 346.191 131.784C345.551 131.635 344.826 131.56 344.015 131.56C342.522 131.56 341.775 131.976 341.775 132.808C341.775 133 341.807 133.171 341.871 133.32C341.935 133.469 342.063 133.619 342.255 133.768C342.447 133.896 342.703 134.045 343.023 134.216C343.364 134.365 343.791 134.536 344.303 134.728C345.348 135.112 346.212 135.496 346.895 135.88C347.578 136.243 348.111 136.648 348.495 137.096C348.9 137.523 349.178 138.003 349.327 138.536C349.498 139.069 349.583 139.688 349.583 140.392C349.583 142.056 348.954 143.315 347.695 144.168C346.458 145.021 344.698 145.448 342.415 145.448C340.922 145.448 339.674 145.32 338.671 145.064C337.69 144.808 337.007 144.595 336.623 144.424L337.423 140.552C338.234 140.872 339.066 141.128 339.919 141.32C340.772 141.491 341.615 141.576 342.447 141.576ZM367.514 144.424C366.704 144.659 365.658 144.872 364.378 145.064C363.098 145.277 361.754 145.384 360.346 145.384C358.917 145.384 357.722 145.192 356.762 144.808C355.824 144.424 355.077 143.891 354.522 143.208C353.968 142.504 353.573 141.672 353.338 140.712C353.104 139.752 352.986 138.696 352.986 137.544V128.168H357.754V136.968C357.754 138.504 357.957 139.613 358.362 140.296C358.768 140.979 359.525 141.32 360.634 141.32C360.976 141.32 361.338 141.309 361.722 141.288C362.106 141.245 362.448 141.203 362.746 141.16V128.168H367.514V144.424ZM378.71 145.32C377.323 145.299 376.193 145.149 375.318 144.872C374.465 144.595 373.782 144.211 373.27 143.72C372.779 143.208 372.438 142.6 372.246 141.896C372.075 141.171 371.99 140.36 371.99 139.464V120.936L376.758 120.168V138.504C376.758 138.931 376.79 139.315 376.854 139.656C376.918 139.997 377.035 140.285 377.206 140.52C377.398 140.755 377.665 140.947 378.006 141.096C378.347 141.245 378.806 141.341 379.382 141.384L378.71 145.32ZM381.955 123.976L386.723 123.208V128.168H392.451V132.136H386.723V138.056C386.723 139.059 386.894 139.859 387.235 140.456C387.598 141.053 388.312 141.352 389.379 141.352C389.891 141.352 390.414 141.309 390.947 141.224C391.502 141.117 392.003 140.979 392.451 140.808L393.123 144.52C392.547 144.755 391.907 144.957 391.203 145.128C390.499 145.299 389.635 145.384 388.611 145.384C387.31 145.384 386.232 145.213 385.379 144.872C384.526 144.509 383.843 144.019 383.331 143.4C382.819 142.76 382.456 141.992 382.243 141.096C382.051 140.2 381.955 139.208 381.955 138.12V123.976ZM401.166 141.576C402.04 141.576 402.659 141.491 403.022 141.32C403.384 141.149 403.566 140.819 403.566 140.328C403.566 139.944 403.331 139.613 402.862 139.336C402.392 139.037 401.678 138.707 400.718 138.344C399.971 138.067 399.288 137.779 398.67 137.48C398.072 137.181 397.56 136.829 397.134 136.424C396.707 135.997 396.376 135.496 396.142 134.92C395.907 134.344 395.79 133.651 395.79 132.84C395.79 131.261 396.376 130.013 397.55 129.096C398.723 128.179 400.334 127.72 402.382 127.72C403.406 127.72 404.387 127.816 405.326 128.008C406.264 128.179 407.011 128.371 407.566 128.584L406.734 132.296C406.179 132.104 405.571 131.933 404.91 131.784C404.27 131.635 403.544 131.56 402.734 131.56C401.24 131.56 400.494 131.976 400.494 132.808C400.494 133 400.526 133.171 400.59 133.32C400.654 133.469 400.782 133.619 400.974 133.768C401.166 133.896 401.422 134.045 401.742 134.216C402.083 134.365 402.51 134.536 403.022 134.728C404.067 135.112 404.931 135.496 405.614 135.88C406.296 136.243 406.83 136.648 407.214 137.096C407.619 137.523 407.896 138.003 408.046 138.536C408.216 139.069 408.302 139.688 408.302 140.392C408.302 142.056 407.672 143.315 406.414 144.168C405.176 145.021 403.416 145.448 401.134 145.448C399.64 145.448 398.392 145.32 397.39 145.064C396.408 144.808 395.726 144.595 395.342 144.424L396.142 140.552C396.952 140.872 397.784 141.128 398.638 141.32C399.491 141.491 400.334 141.576 401.166 141.576ZM416.537 142.472C416.537 143.432 416.228 144.168 415.609 144.68C415.012 145.171 414.329 145.416 413.561 145.416C412.793 145.416 412.1 145.171 411.481 144.68C410.884 144.168 410.585 143.432 410.585 142.472C410.585 141.512 410.884 140.787 411.481 140.296C412.1 139.784 412.793 139.528 413.561 139.528C414.329 139.528 415.012 139.784 415.609 140.296C416.228 140.787 416.537 141.512 416.537 142.472Z" fill="#BE1931"/>
<circle cx="34.5" cy="29.5" r="2.5" fill="#D9D9D9"/>
<circle cx="34.5" cy="43.5" r="2.5" fill="#D9D9D9"/>
<circle cx="34.5" cy="57.5" r="2.5" fill="#D9D9D9"/>
<circle cx="34.5" cy="71.5" r="2.5" fill="#D9D9D9"/>
<circle cx="18.5" cy="29.5" r="2.5" fill="#D9D9D9"/>
<circle cx="18.5" cy="43.5" r="2.5" fill="#D9D9D9"/>
<circle cx="18.5" cy="57.5" r="2.5" fill="#D9D9D9"/>
<circle cx="18.5" cy="71.5" r="2.5" fill="#D9D9D9"/>
<circle cx="18.5" cy="71.5" r="2.5" fill="#D9D9D9"/>
<circle cx="2.5" cy="29.5" r="2.5" fill="#D9D9D9"/>
<circle cx="2.5" cy="43.5" r="2.5" fill="#D9D9D9"/>
<circle cx="2.5" cy="57.5" r="2.5" fill="#D9D9D9"/>
<circle cx="2.5" cy="71.5" r="2.5" fill="#D9D9D9"/>
<circle cx="46.4998" cy="15.6226" r="2.5" transform="rotate(-90 46.4998 15.6226)" fill="#D9D9D9"/>
<circle cx="32.4999" cy="15.5817" r="2.5" transform="rotate(-90 32.4999 15.5817)" fill="#D9D9D9"/>
<circle cx="18.4999" cy="15.5408" r="2.5" transform="rotate(-90 18.4999 15.5408)" fill="#D9D9D9"/>
<circle cx="4.5" cy="15.5" r="2.5" transform="rotate(-90 4.5 15.5)" fill="#D9D9D9"/>
<circle cx="45.4998" cy="2.62256" r="2.5" transform="rotate(-90 45.4998 2.62256)" fill="#D9D9D9"/>
<circle cx="31.4999" cy="2.58173" r="2.5" transform="rotate(-90 31.4999 2.58173)" fill="#D9D9D9"/>
<circle cx="17.4999" cy="2.54083" r="2.5" transform="rotate(-90 17.4999 2.54083)" fill="#D9D9D9"/>
<circle cx="3.5" cy="2.5" r="2.5" transform="rotate(-90 3.5 2.5)" fill="#D9D9D9"/>
<circle cx="723.649" cy="130.483" r="2.5" transform="rotate(-0.635835 723.649 130.483)" fill="#D9D9D9"/>
<circle cx="723.5" cy="144.5" r="2.5" fill="#D9D9D9"/>
<circle cx="723.5" cy="158.5" r="2.5" fill="#D9D9D9"/>
<circle cx="723.5" cy="172.5" r="2.5" fill="#D9D9D9"/>
<circle cx="707.5" cy="130.5" r="2.5" fill="#D9D9D9"/>
<circle cx="707.5" cy="144.5" r="2.5" fill="#D9D9D9"/>
<circle cx="707.5" cy="158.5" r="2.5" fill="#D9D9D9"/>
<circle cx="707.5" cy="172.5" r="2.5" fill="#D9D9D9"/>
<circle cx="691.5" cy="130.5" r="2.5" fill="#D9D9D9"/>
<circle cx="691.5" cy="144.5" r="2.5" fill="#D9D9D9"/>
<circle cx="691.5" cy="158.5" r="2.5" fill="#D9D9D9"/>
<circle cx="691.5" cy="172.5" r="2.5" fill="#D9D9D9"/>
<circle cx="723.528" cy="116.528" r="2.5" transform="rotate(-90.6358 723.528 116.528)" fill="#D9D9D9"/>
<circle cx="707.5" cy="116.541" r="2.5" transform="rotate(-90 707.5 116.541)" fill="#D9D9D9"/>
<circle cx="693.5" cy="116.5" r="2.5" transform="rotate(-90 693.5 116.5)" fill="#D9D9D9"/>
<circle cx="723.528" cy="103.528" r="2.5" transform="rotate(-90.6358 723.528 103.528)" fill="#D9D9D9"/>
<circle cx="706.5" cy="103.541" r="2.5" transform="rotate(-90 706.5 103.541)" fill="#D9D9D9"/>
<circle cx="692.5" cy="103.5" r="2.5" transform="rotate(-90 692.5 103.5)" fill="#D9D9D9"/>
<circle cx="102.5" cy="15.6226" r="2.5" transform="rotate(-90 102.5 15.6226)" fill="#D9D9D9"/>
<circle cx="88.4999" cy="15.5817" r="2.5" transform="rotate(-90 88.4999 15.5817)" fill="#D9D9D9"/>
<circle cx="74.4999" cy="15.5408" r="2.5" transform="rotate(-90 74.4999 15.5408)" fill="#D9D9D9"/>
<circle cx="60.5" cy="15.5" r="2.5" transform="rotate(-90 60.5 15.5)" fill="#D9D9D9"/>
<circle cx="102.5" cy="2.62256" r="2.5" transform="rotate(-90 102.5 2.62256)" fill="#D9D9D9"/>
<circle cx="88.4999" cy="2.58173" r="2.5" transform="rotate(-90 88.4999 2.58173)" fill="#D9D9D9"/>
<circle cx="74.4999" cy="2.54083" r="2.5" transform="rotate(-90 74.4999 2.54083)" fill="#D9D9D9"/>
<circle cx="675.5" cy="172.582" r="2.5" transform="rotate(-90 675.5 172.582)" fill="#D9D9D9"/>
<circle cx="661.5" cy="172.541" r="2.5" transform="rotate(-90 661.5 172.541)" fill="#D9D9D9"/>
<circle cx="647.5" cy="172.5" r="2.5" transform="rotate(-90 647.5 172.5)" fill="#D9D9D9"/>
<circle cx="60.5" cy="2.5" r="2.5" transform="rotate(-90 60.5 2.5)" fill="#D9D9D9"/>
</svg>
